<svg width="128" height="128" viewBox="0 0 128 128" fill="none" xmlns="http://www.w3.org/2000/svg">
<path d="M10.1719 70.9219V67.0938H21.1875V70.9219C21.2396 73.1094 22.2552 74.5156 24.2344 75.1406C24.4427 75.2448 24.625 75.2969 24.7812 75.2969V86.3906C21.9167 86.3906 19.026 85.2708 16.1094 83.0312C12.2031 79.9583 10.224 75.9219 10.1719 70.9219ZM29 86.3906V75.2969C29.9375 75.2969 30.9271 74.8542 31.9688 73.9688C32.8542 73.1354 33.3229 72.1198 33.375 70.9219V31.3125H44.3125V70.9219C44.3125 76.7031 41.7344 81.0781 36.5781 84.0469C33.9219 85.6094 31.3958 86.3906 29 86.3906ZM88.2188 86V31.3125H99.2344V75.0625H117.594V86H88.2188Z" fill="#222222"/>
<path d="M49.1562 86V31.3125H60.0938V86H49.1562ZM64.3906 86V76.3906H64.7812C67.9062 76.3906 69.9896 75.0885 71.0312 72.4844C71.3958 71.651 71.5781 70.7917 71.5781 69.9062C71.5781 67.3021 70.5365 65.4271 68.4531 64.2812C67.4115 63.7083 66.2656 63.4219 65.0156 63.4219H64.3906V53.8906H65.0156C67.9323 53.8906 69.9375 52.6406 71.0312 50.1406C71.3958 49.2552 71.5781 48.3438 71.5781 47.4062C71.5781 44.8542 70.5104 42.9792 68.375 41.7812C67.2812 41.2083 66.0833 40.9219 64.7812 40.9219H64.3906V31.3125H66.2656C73.0365 31.3125 77.8021 33.7865 80.5625 38.7344C81.8646 41.1302 82.5156 43.7604 82.5156 46.625C82.5156 51.1562 81.1354 54.8281 78.375 57.6406C77.9583 58.0052 77.5677 58.3438 77.2031 58.6562C80.224 60.8958 81.9688 64.3073 82.4375 68.8906C82.4896 69.5156 82.5156 70.1146 82.5156 70.6875C82.5156 75.7396 80.7448 79.6979 77.2031 82.5625C74.2865 84.8542 70.6406 86 66.2656 86H64.3906Z" fill="#2E75B7"/>
</svg>
